<svg xmlns="http://www.w3.org/2000/svg" viewBox="0 0 280 160">
  <ellipse cx="140" cy="136" rx="74" ry="6.5" fill="#1b2430" opacity="0.10"/>
  <g transform="translate(0.0 1.0)">
    <path d="M 32.0 28.0 L 248.0 28.0 L 248.0 44.0 Q 221.0 55.0 194.0 44.0 Q 167.0 55.0 140.0 44.0 Q 113.0 55.0 86.0 44.0 Q 59.0 55.0 32.0 44.0 Z" fill="#646b73"/>
    <path d="M 32.0 44.0 Q 59.0 55.0 86.0 44.0 Q 113.0 55.0 140.0 44.0 Q 167.0 55.0 194.0 44.0 Q 221.0 55.0 248.0 44.0" fill="none" stroke="#22272c" stroke-width="2.3" stroke-linejoin="round" stroke-linecap="round"/>
    <path d="M 32.0 44.0 Q 59.0 55.0 86.0 44.0 Q 113.0 55.0 140.0 44.0 Q 167.0 55.0 194.0 44.0 Q 221.0 55.0 248.0 44.0" fill="none" stroke="#d0d4d8" stroke-width="0.85" stroke-linejoin="round" stroke-linecap="round"/>
    <path d="M 32.0 49.0 L 248.0 49.0 L 248.0 65.0 Q 221.0 76.0 194.0 65.0 Q 167.0 76.0 140.0 65.0 Q 113.0 76.0 86.0 65.0 Q 59.0 76.0 32.0 65.0 Z" fill="#555c64"/>
    <path d="M 32.0 65.0 Q 59.0 76.0 86.0 65.0 Q 113.0 76.0 140.0 65.0 Q 167.0 76.0 194.0 65.0 Q 221.0 76.0 248.0 65.0" fill="none" stroke="#22272c" stroke-width="2.3" stroke-linejoin="round" stroke-linecap="round"/>
    <path d="M 32.0 65.0 Q 59.0 76.0 86.0 65.0 Q 113.0 76.0 140.0 65.0 Q 167.0 76.0 194.0 65.0 Q 221.0 76.0 248.0 65.0" fill="none" stroke="#d0d4d8" stroke-width="0.85" stroke-linejoin="round" stroke-linecap="round"/>
    <path d="M 32.0 70.0 L 248.0 70.0 L 248.0 86.0 Q 221.0 97.0 194.0 86.0 Q 167.0 97.0 140.0 86.0 Q 113.0 97.0 86.0 86.0 Q 59.0 97.0 32.0 86.0 Z" fill="#646b73"/>
    <path d="M 32.0 86.0 Q 59.0 97.0 86.0 86.0 Q 113.0 97.0 140.0 86.0 Q 167.0 97.0 194.0 86.0 Q 221.0 97.0 248.0 86.0" fill="none" stroke="#22272c" stroke-width="2.3" stroke-linejoin="round" stroke-linecap="round"/>
    <path d="M 32.0 86.0 Q 59.0 97.0 86.0 86.0 Q 113.0 97.0 140.0 86.0 Q 167.0 97.0 194.0 86.0 Q 221.0 97.0 248.0 86.0" fill="none" stroke="#d0d4d8" stroke-width="0.85" stroke-linejoin="round" stroke-linecap="round"/>
    <path d="M 32.0 91.0 L 248.0 91.0 L 248.0 107.0 Q 221.0 118.0 194.0 107.0 Q 167.0 118.0 140.0 107.0 Q 113.0 118.0 86.0 107.0 Q 59.0 118.0 32.0 107.0 Z" fill="#555c64"/>
    <path d="M 32.0 107.0 Q 59.0 118.0 86.0 107.0 Q 113.0 118.0 140.0 107.0 Q 167.0 118.0 194.0 107.0 Q 221.0 118.0 248.0 107.0" fill="none" stroke="#22272c" stroke-width="2.3" stroke-linejoin="round" stroke-linecap="round"/>
    <path d="M 32.0 107.0 Q 59.0 118.0 86.0 107.0 Q 113.0 118.0 140.0 107.0 Q 167.0 118.0 194.0 107.0 Q 221.0 118.0 248.0 107.0" fill="none" stroke="#d0d4d8" stroke-width="0.85" stroke-linejoin="round" stroke-linecap="round"/>
  </g>
</svg>
